<svg xmlns="http://www.w3.org/2000/svg" fill="none" viewBox="0 0 184 36">
  <path fill="#084734" d="M18 36A18 18 0 1 1 30.728 5.272l-6.363 6.363A9.002 9.002 0 1 0 18 27.002z"/>
  <path fill="#084734" d="M36 18v18L18 18z"/>
  <path fill="#595959" d="M57.01 15h1.68v10.32q0 .99-.43 1.84-.42.86-1.14 1.49a5.3 5.3 0 0 1-1.64.99q-.92.36-1.92.36a4.56 4.56 0 0 1-2.01-.47 5.6 5.6 0 0 1-1.7-1.24 4.7 4.7 0 0 1-1.04-1.73l1.54-.7q.19.69.68 1.24.5.56 1.16.88.67.33 1.37.33.66 0 1.27-.23a3.8 3.8 0 0 0 1.11-.64q.5-.4.78-.95.29-.54.29-1.17v-1.99q-.51.86-1.35 1.4-.83.53-1.94.53-1.06 0-1.99-.41a5.2 5.2 0 0 1-1.63-1.13 5.5 5.5 0 0 1-1.1-1.68 5.2 5.2 0 0 1-.4-2.04q0-1.09.4-2.04a5.3 5.3 0 0 1 1.1-1.68 5.1 5.1 0 0 1 1.63-1.14 4.9 4.9 0 0 1 1.99-.41q1.11 0 1.94.53.84.53 1.35 1.4zm-3.28 8.63q.97 0 1.68-.5.72-.5 1.11-1.33t.39-1.8q0-1-.4-1.82a3.2 3.2 0 0 0-1.11-1.32q-.71-.5-1.67-.5-.94 0-1.72.49t-1.24 1.32a3.74 3.74 0 0 0-.45 1.83q0 1.01.46 1.84.47.82 1.24 1.31a3.2 3.2 0 0 0 1.71.48M61.095 25V15h1.68v1.25q.53-.7 1.34-1.11.81-.42 1.76-.42.58 0 1.12.15l-.68 1.68a2.68 2.68 0 0 0-2.18.24q-.621.36-.99.98-.37.62-.37 1.38V25zm11.02.26q-1.38 0-2.52-.71a5.3 5.3 0 0 1-1.81-1.9 5.34 5.34 0 0 1-.67-2.65q0-1.1.39-2.05.39-.96 1.07-1.68.69-.73 1.6-1.14a4.7 4.7 0 0 1 1.94-.41q1.38 0 2.51.71a5.2 5.2 0 0 1 1.81 1.91q.68 1.2.68 2.66 0 1.09-.39 2.04a5.4 5.4 0 0 1-1.08 1.68q-.68.72-1.59 1.13-.9.41-1.94.41m0-1.68q.94 0 1.69-.49.76-.5 1.19-1.31.44-.82.44-1.78a3.7 3.7 0 0 0-.45-1.8 3.5 3.5 0 0 0-1.19-1.31q-.75-.49-1.68-.49-.94 0-1.69.5-.75.49-1.19 1.31a3.7 3.7 0 0 0-.44 1.79q0 1 .45 1.82.45.81 1.21 1.29.76.47 1.66.47M82.792 25h-1.7l-3.35-10h1.64l2.58 7.63L84.51 15h1.73l2.56 7.63L91.35 15h1.66l-3.35 10h-1.71l-2.59-7.7zm17.195-8.32h-2.27l-.01 8.32h-1.68l.01-8.32h-1.72V15h1.72l-.01-3.14h1.68l.01 3.14h2.27zm10.632 2.1V25h-1.68v-5.85q0-.76-.37-1.38a2.74 2.74 0 0 0-.99-.98 2.64 2.64 0 0 0-1.38-.37q-.75 0-1.38.37a2.74 2.74 0 0 0-.99.98q-.37.62-.37 1.38V25h-1.68V10h1.68v6.25q.53-.7 1.34-1.11.81-.42 1.76-.42 1.12 0 2.04.55.93.54 1.47 1.46.55.92.55 2.05m9.855 6.41a5.4 5.4 0 0 1-1.58-.3 4.7 4.7 0 0 1-1.34-.75 2.9 2.9 0 0 1-.83-1.1l1.44-.62q.15.34.54.64t.9.48 1.03.18q.55 0 1.03-.17t.78-.5q.31-.34.31-.81 0-.5-.34-.78-.33-.29-.84-.45-.501-.17-1.02-.32-1.03-.26-1.84-.62-.81-.37-1.28-.93-.46-.57-.46-1.45 0-.93.51-1.61.52-.68 1.36-1.05t1.8-.37a4.7 4.7 0 0 1 2.21.52q1 .52 1.49 1.41l-1.35.79a1.74 1.74 0 0 0-.52-.63 2.9 2.9 0 0 0-1.72-.61 3.1 3.1 0 0 0-1.09.15 1.85 1.85 0 0 0-.81.52q-.3.34-.3.85 0 .5.32.76.33.26.85.42.53.15 1.15.35.91.29 1.7.67t1.27.95q.489.57.48 1.41 0 .92-.55 1.61-.55.68-1.43 1.04-.87.36-1.87.32m12.355-2.83 1.5.81a5.1 5.1 0 0 1-1.73 1.52q-1.04.57-2.26.57-1.38 0-2.52-.71a5.3 5.3 0 0 1-1.81-1.9 5.35 5.35 0 0 1-.67-2.65q0-1.1.39-2.05.39-.96 1.07-1.68.69-.73 1.6-1.14a4.7 4.7 0 0 1 1.94-.41q1.22 0 2.26.57 1.05.57 1.73 1.53l-1.5.81a3.3 3.3 0 0 0-1.14-.91 3.06 3.06 0 0 0-3.04.18q-.75.49-1.19 1.31a3.7 3.7 0 0 0-.44 1.79q0 .97.44 1.79.45.81 1.2 1.3.76.49 1.68.49.74 0 1.39-.34t1.1-.88m3.306 2.64V15h1.68v1.25q.53-.7 1.34-1.11.81-.42 1.76-.42.58 0 1.12.15l-.68 1.68a2.68 2.68 0 0 0-2.18.24q-.621.36-.99.98-.37.62-.37 1.38V25zm14.661-10h1.68v10h-1.68l-.07-1.69a3.84 3.84 0 0 1-1.3 1.41q-.82.54-1.96.54-1.1 0-2.06-.41a5.6 5.6 0 0 1-1.7-1.15 5.4 5.4 0 0 1-1.14-1.7 5.2 5.2 0 0 1-.41-2.07q0-1.07.4-2.02a5.1 5.1 0 0 1 1.11-1.66 5.2 5.2 0 0 1 1.66-1.12q.94-.41 2.02-.41 1.179 0 2.07.56a4.4 4.4 0 0 1 1.44 1.43zm-3.36 8.63q.99 0 1.71-.48.73-.49 1.12-1.32.4-.83.4-1.83 0-1.02-.4-1.84a3.2 3.2 0 0 0-1.13-1.31q-.72-.49-1.7-.49-.99 0-1.8.49t-1.29 1.32a3.6 3.6 0 0 0-.47 1.83q0 1.01.49 1.84.49.82 1.3 1.31.81.48 1.77.48m8.718 6.37h-1.68V15h1.68v1.71q.51-.88 1.36-1.42.85-.55 2.02-.55a5.2 5.2 0 0 1 3.72 1.55q.72.72 1.13 1.67t.41 2.04-.41 2.05a5.4 5.4 0 0 1-1.13 1.69q-.72.72-1.68 1.13a5.1 5.1 0 0 1-2.04.41q-1.17 0-2.02-.54a4.2 4.2 0 0 1-1.36-1.43zm3.36-13.63q-.97 0-1.7.49a3.3 3.3 0 0 0-1.13 1.31 4.2 4.2 0 0 0-.39 1.83q0 1 .39 1.83.4.83 1.12 1.32.73.49 1.71.49.97 0 1.78-.48.81-.49 1.3-1.31.49-.83.49-1.85 0-1-.48-1.82a3.66 3.66 0 0 0-1.29-1.32 3.4 3.4 0 0 0-1.8-.49m11.294 8.89q-1.38 0-2.52-.71a5.3 5.3 0 0 1-1.81-1.9 5.34 5.34 0 0 1-.67-2.65q0-1.1.39-2.05.39-.96 1.07-1.68.69-.73 1.6-1.14a4.7 4.7 0 0 1 1.94-.41q1.13 0 2.07.46.95.45 1.62 1.26.68.81 1.01 1.88.34 1.07.25 2.29h-8.16q.12.85.56 1.52.44.66 1.12 1.05.69.39 1.53.4.9 0 1.63-.46.73-.47 1.18-1.28l1.71.4a5.27 5.27 0 0 1-1.81 2.18q-1.21.84-2.71.84m-3.26-5.97h6.52a3.3 3.3 0 0 0-.54-1.53 3.55 3.55 0 0 0-1.17-1.12q-.71-.42-1.55-.42t-1.54.41a3.5 3.5 0 0 0-1.16 1.11q-.45.69-.56 1.55m9.895 5.71V15h1.68v1.25q.53-.7 1.34-1.11.81-.42 1.76-.42.58 0 1.12.15l-.68 1.68a2.68 2.68 0 0 0-2.18.24 2.74 2.74 0 0 0-.99.98q-.37.62-.37 1.38V25z"/>
</svg>
